<svg xmlns="http://www.w3.org/2000/svg" xmlns:xlink="http://www.w3.org/1999/xlink" width="1366" zoomAndPan="magnify" viewBox="0 0 1024.5 576" height="768" preserveAspectRatio="xMidYMid meet" version="1.2"><defs><clipPath id="1bffe5b732"><path d="M 0 0.140625 L 1024 0.140625 L 1024 575.859375 L 0 575.859375 Z M 0 0.140625 "/></clipPath><clipPath id="b89301608d"><path d="M 0 176 L 1023 176 L 1023 575.535156 L 0 575.535156 Z M 0 176 "/></clipPath><clipPath id="c7aa5758b6"><path d="M 399.4375 229 L 624 229 L 624 350 L 399.4375 350 Z M 399.4375 229 "/></clipPath></defs><g id="2ac23ba240"><g clip-rule="nonzero" clip-path="url(#1bffe5b732)"><path style=" stroke:none;fill-rule:nonzero;fill:#ffffff;fill-opacity:1;" d="M 0 0.140625 L 1024 0.140625 L 1024 575.859375 L 0 575.859375 Z M 0 0.140625 "/><path style=" stroke:none;fill-rule:nonzero;fill:#ffffff;fill-opacity:1;" d="M 0 0.140625 L 1024 0.140625 L 1024 575.859375 L 0 575.859375 Z M 0 0.140625 "/></g><g clip-rule="nonzero" clip-path="url(#b89301608d)"><path style=" stroke:none;fill-rule:evenodd;fill:#c9e3ac;fill-opacity:1;" d="M 57.695312 177.207031 C 39.050781 177.9375 19.644531 180.34375 0.679688 184.285156 L -6.644531 185.808594 L -6.644531 575.535156 L 1022.816406 575.535156 L 1022.816406 380.222656 C 1022.816406 272.796875 1022.597656 184.90625 1022.328125 184.90625 C 1021.847656 184.90625 1018.8125 186.800781 1005.511719 195.410156 C 1001.691406 197.878906 998.230469 199.902344 997.824219 199.902344 C 997.414062 199.902344 997.082031 200.144531 997.082031 200.441406 C 997.082031 200.734375 995.554688 201.769531 993.683594 202.742188 C 991.816406 203.714844 990.125 204.679688 989.929688 204.882812 C 989.734375 205.089844 988.609375 205.832031 987.429688 206.527344 C 980.265625 210.769531 964.359375 220.082031 963.335938 220.636719 C 962.667969 221 956.554688 224.402344 949.753906 228.199219 C 942.953125 231.996094 935.0625 236.195312 932.226562 237.523438 C 929.390625 238.859375 926.902344 240.222656 926.695312 240.554688 C 926.488281 240.890625 925.433594 241.386719 924.355469 241.65625 C 923.269531 241.925781 922.222656 242.367188 922.019531 242.632812 C 921.824219 242.902344 915.707031 245.976562 908.433594 249.472656 C 901.160156 252.964844 893.277344 256.761719 890.917969 257.910156 C 888.558594 259.054688 886.628906 259.929688 886.628906 259.851562 C 886.628906 259.769531 883.886719 261 880.539062 262.582031 C 868.640625 268.199219 832.535156 282.882812 816.566406 288.597656 C 785.222656 299.816406 769.394531 304.796875 740.257812 312.640625 C 719.683594 318.175781 710.128906 320.28125 685.023438 324.8125 C 621.550781 336.261719 566.445312 335.46875 512.015625 322.324219 C 503.367188 320.234375 492.429688 317.671875 487.710938 316.628906 C 482.992188 315.585938 478.8125 314.53125 478.417969 314.289062 C 478.023438 314.046875 477.378906 313.792969 476.988281 313.726562 C 471.472656 312.808594 435.433594 299.671875 415.726562 291.402344 C 390.863281 280.96875 374.683594 273.351562 316.132812 244.523438 C 262.296875 218.011719 232.78125 205.613281 198.886719 195.261719 C 194.167969 193.824219 189.828125 192.460938 189.238281 192.238281 C 188.648438 192.015625 187.84375 191.714844 187.453125 191.574219 C 183.402344 190.101562 162.09375 185.007812 161.019531 185.25 C 160.246094 185.425781 157.027344 184.96875 153.871094 184.234375 C 130.105469 178.714844 91.433594 175.894531 57.695312 177.207031 "/></g><g clip-rule="nonzero" clip-path="url(#c7aa5758b6)"><path style=" stroke:none;fill-rule:nonzero;fill:#000000;fill-opacity:1;" d="M 416.234375 348.195312 C 408.828125 345.808594 403.113281 339.296875 400.6875 330.449219 C 399.453125 325.910156 399.546875 316.738281 400.917969 310.453125 C 404.894531 292.386719 416.371094 272.761719 432.695312 256.253906 C 452.992188 235.707031 474.710938 225.527344 487.148438 230.753906 C 489.386719 231.71875 492.496094 234.5625 493.6875 236.855469 C 495.195312 239.699219 495.101562 246.117188 493.503906 249.96875 C 491.675781 254.371094 489.066406 257.996094 484.265625 262.855469 C 477.914062 269.273438 468.539062 275.238281 462 277.070312 C 458.664062 277.988281 456.925781 277.667969 456.515625 276.109375 C 456.101562 274.550781 457.109375 273.355469 461.910156 269.503906 C 473.066406 260.5625 481.890625 249.742188 481.890625 245.015625 C 481.890625 243.824219 481.753906 243.6875 480.382812 243.6875 C 473.933594 243.6875 462.046875 250.0625 451.347656 259.277344 C 438.363281 270.46875 428.214844 283.308594 421.445312 297.109375 C 413.355469 313.574219 412.394531 328.613281 419.207031 333.109375 C 422.773438 335.492188 427.34375 333.839844 432.738281 328.203125 C 434.429688 326.457031 437.175781 322.835938 438.910156 320.175781 C 440.648438 317.472656 442.570312 314.535156 443.164062 313.617188 C 444.308594 311.875 445.90625 310.867188 447.554688 310.867188 C 448.96875 310.867188 450.664062 313.023438 450.980469 315.222656 C 451.621094 319.257812 453.589844 328.890625 454.046875 330.355469 C 454.320312 331.183594 454.730469 331.871094 454.914062 331.871094 C 455.601562 331.871094 459.167969 327.558594 461.726562 323.660156 C 463.097656 321.597656 466.800781 314.582031 470.046875 308.023438 C 473.25 301.511719 476.496094 295.597656 477.226562 294.816406 C 478.1875 293.855469 479.191406 293.394531 480.609375 293.257812 C 485.183594 292.753906 486.097656 296.972656 483.445312 306.234375 C 481.84375 311.785156 480.382812 319.808594 480.609375 321.78125 C 480.746094 323.019531 480.976562 322.882812 485.777344 318.296875 C 490.027344 314.214844 491.078125 312.929688 492.589844 309.859375 C 495.148438 304.632812 497.433594 301.328125 501.367188 297.246094 C 505.4375 292.984375 508.546875 290.78125 512.613281 289.40625 C 515.953125 288.261719 519.882812 288.351562 522.351562 289.636719 C 524.503906 290.734375 526.835938 292.984375 527.472656 294.542969 C 528.070312 295.964844 528.070312 295.964844 529.027344 295.046875 C 533.050781 291.332031 538.355469 292.15625 540.320312 296.699219 C 541.464844 299.449219 541.097656 300.917969 537.257812 308.710938 C 533.007812 317.378906 531.359375 321.550781 532.230469 321.550781 C 533.144531 321.550781 541.28125 312.839844 545.992188 306.832031 C 548.367188 303.757812 551.066406 299.769531 551.980469 297.980469 C 554.222656 293.578125 557.789062 288.351562 559.570312 286.839844 C 561.355469 285.324219 562.769531 284.957031 565.011719 285.324219 C 565.972656 285.507812 568.761719 285.785156 571.183594 285.96875 C 576.488281 286.378906 579.871094 287.800781 582.707031 290.917969 C 588.558594 297.292969 589.425781 306.375 585.128906 316.738281 C 579.414062 330.632812 565.378906 339.4375 554.128906 336.226562 C 550.335938 335.125 546.449219 331.226562 545.535156 327.652344 C 545.214844 326.320312 544.757812 325.21875 544.574219 325.21875 C 544.390625 325.21875 543.339844 325.953125 542.289062 326.871094 C 541.191406 327.789062 539.910156 328.75 539.363281 329.027344 C 538.859375 329.300781 537.304688 330.449219 535.933594 331.550781 C 532.914062 333.980469 531.496094 334.757812 528.617188 335.492188 C 524 336.640625 519.289062 333.75 518.054688 329.027344 L 517.460938 326.6875 L 514.855469 329.027344 C 508.636719 334.621094 502.328125 337.695312 497.984375 337.1875 C 495.242188 336.867188 492.496094 335.492188 490.941406 333.613281 C 489.617188 332.054688 489.664062 332.007812 486.507812 334.4375 C 483.582031 336.683594 481.476562 337.464844 478.324219 337.511719 C 476.039062 337.554688 475.125 337.328125 473.339844 336.273438 C 472.152344 335.539062 470.917969 334.53125 470.640625 334.023438 C 470.183594 333.152344 469.910156 333.335938 466.710938 336.777344 C 459.121094 344.984375 452.8125 346.40625 447.414062 341.132812 C 446.226562 339.941406 444.992188 338.566406 444.71875 338.058594 C 444.261719 337.234375 443.894531 337.464844 440.328125 340.859375 C 432.875 348.101562 424.191406 350.71875 416.234375 348.195312 Z M 563.089844 321.277344 C 568.53125 318.664062 573.515625 310.683594 573.515625 304.492188 C 573.515625 302.15625 572.28125 300.410156 569.402344 298.808594 L 567.480469 297.753906 L 564.691406 303.484375 C 561.628906 309.8125 559.34375 316.277344 558.839844 320.128906 L 558.519531 322.652344 L 559.980469 322.378906 C 560.851562 322.148438 562.222656 321.691406 563.089844 321.277344 Z M 513.210938 311.417969 C 519.882812 304.675781 520.066406 304.492188 519.335938 303.4375 C 518.328125 301.972656 517.277344 302.15625 514.761719 304.035156 C 510.96875 306.921875 506.257812 313.617188 504.246094 318.890625 L 503.746094 320.175781 L 505.023438 319.257812 C 505.757812 318.800781 509.414062 315.222656 513.210938 311.417969 Z M 590.890625 329.53125 C 588.695312 328.203125 587.917969 326.78125 587.917969 324.210938 C 587.917969 319.945312 591.804688 315.542969 595.597656 315.542969 C 598.113281 315.542969 601.175781 318.066406 601.910156 320.773438 C 602.777344 324.027344 600.855469 328.15625 597.65625 329.804688 C 595.828125 330.675781 592.671875 330.585938 590.890625 329.53125 Z M 597.839844 311.464844 C 596.742188 311.003906 595.875 308.574219 595.875 305.867188 C 595.875 300.457031 600.171875 282.4375 604.46875 269.78125 C 607.167969 261.9375 611.511719 252.859375 613.84375 250.335938 C 618.414062 245.339844 624.3125 248.410156 623.582031 255.425781 C 622.757812 263.40625 613.886719 287.207031 605.566406 303.898438 C 602.273438 310.5 600.308594 312.472656 597.839844 311.464844 Z M 484.085938 287.9375 C 481.386719 285.828125 480.746094 282.621094 482.53125 280.003906 C 486.371094 274.273438 495.101562 278.308594 493 284.914062 C 491.8125 288.535156 486.917969 290.1875 484.085938 287.9375 Z M 484.085938 287.9375 "/></g></g></svg>