<svg xmlns="http://www.w3.org/2000/svg" xmlns:xlink="http://www.w3.org/1999/xlink" width="500" zoomAndPan="magnify" viewBox="0 0 375 374.999991" height="500" preserveAspectRatio="xMidYMid meet" version="1.2"><defs/><g id="a518338d58"><g style="fill:#005728;fill-opacity:1;"><g transform="translate(73.286058, 210.374986)"><path style="stroke:none" d="M 43.28125 -65.9375 C 43.90625 -65.257812 44.191406 -64.242188 44.140625 -62.890625 C 44.035156 -61.535156 43.59375 -59.894531 42.8125 -57.96875 C 41.40625 -54.320312 38.929688 -49.789062 35.390625 -44.375 C 31.847656 -38.957031 27.445312 -33.046875 22.1875 -26.640625 C 20.3125 -24.347656 19.191406 -22.785156 18.828125 -21.953125 C 18.410156 -21.117188 18.203125 -19.816406 18.203125 -18.046875 C 18.203125 -12.679688 20.648438 -10.335938 25.546875 -11.015625 C 30.390625 -11.640625 38.148438 -15.3125 48.828125 -22.03125 C 49.867188 -22.65625 50.78125 -23.148438 51.5625 -23.515625 C 52.394531 -23.878906 52.863281 -23.984375 52.96875 -23.828125 C 53.019531 -23.828125 53.046875 -23.800781 53.046875 -23.75 C 53.046875 -23.4375 52.550781 -22.757812 51.5625 -21.71875 C 50.46875 -20.519531 49.0625 -19.191406 47.34375 -17.734375 C 46.457031 -16.953125 45.519531 -16.171875 44.53125 -15.390625 C 43.539062 -14.609375 42.550781 -13.878906 41.5625 -13.203125 C 37.132812 -9.972656 32.785156 -7.734375 28.515625 -6.484375 C 26.222656 -5.753906 24.191406 -5.390625 22.421875 -5.390625 C 20.960938 -5.390625 19.6875 -5.648438 18.59375 -6.171875 C 17.238281 -6.742188 16.144531 -7.523438 15.3125 -8.515625 C 14.476562 -9.453125 13.695312 -10.753906 12.96875 -12.421875 C 12.707031 -13.097656 12.421875 -13.695312 12.109375 -14.21875 C 11.796875 -14.738281 11.585938 -15 11.484375 -15 C 11.378906 -15 11.039062 -14.789062 10.46875 -14.375 C 9.894531 -13.90625 9.269531 -13.382812 8.59375 -12.8125 C 7.1875 -11.5625 5.492188 -10.441406 3.515625 -9.453125 C 1.535156 -8.515625 0 -8.046875 -1.09375 -8.046875 C -3.125 -7.992188 -4.296875 -9.113281 -4.609375 -11.40625 C -4.710938 -11.769531 -4.765625 -12.160156 -4.765625 -12.578125 C -4.765625 -14.503906 -4.113281 -16.613281 -2.8125 -18.90625 C -0.625 -22.707031 1.769531 -25.15625 4.375 -26.25 C 6.925781 -27.394531 9.035156 -26.898438 10.703125 -24.765625 C 11.117188 -24.242188 11.691406 -23.515625 12.421875 -22.578125 C 12.835938 -23.878906 13.4375 -25.832031 14.21875 -28.4375 C 15.101562 -31.144531 16.25 -34.035156 17.65625 -37.109375 C 19.113281 -40.179688 20.703125 -43.203125 22.421875 -46.171875 C 24.503906 -49.765625 26.664062 -53.097656 28.90625 -56.171875 C 31.195312 -59.296875 33.28125 -61.769531 35.15625 -63.59375 C 36.25 -64.582031 37.238281 -65.363281 38.125 -65.9375 C 39.007812 -66.507812 39.765625 -66.796875 40.390625 -66.796875 C 40.960938 -66.796875 41.535156 -66.691406 42.109375 -66.484375 C 42.679688 -66.328125 43.070312 -66.144531 43.28125 -65.9375 Z M 33.984375 -56.40625 C 33.203125 -55.363281 32.289062 -54.007812 31.25 -52.34375 C 30.257812 -50.675781 29.242188 -48.929688 28.203125 -47.109375 C 26.691406 -44.347656 25.335938 -41.742188 24.140625 -39.296875 C 22.992188 -36.898438 22.421875 -35.390625 22.421875 -34.765625 L 22.421875 -34.6875 C 22.421875 -34.425781 22.5 -34.296875 22.65625 -34.296875 C 22.96875 -34.296875 23.515625 -34.789062 24.296875 -35.78125 C 25.492188 -37.238281 27.65625 -40.234375 30.78125 -44.765625 C 34.269531 -49.921875 36.820312 -54.191406 38.4375 -57.578125 C 39.476562 -59.816406 40 -61.273438 40 -61.953125 C 40 -62.265625 39.894531 -62.421875 39.6875 -62.421875 L 39.53125 -62.421875 C 39.164062 -62.316406 38.515625 -61.796875 37.578125 -60.859375 C 36.691406 -59.867188 35.492188 -58.382812 33.984375 -56.40625 Z M -1.015625 -15 C -1.171875 -14.320312 -1.25 -13.75 -1.25 -13.28125 C -1.25 -12.394531 -0.960938 -11.953125 -0.390625 -11.953125 L -0.3125 -11.953125 C 0.625 -12.003906 2.65625 -13.203125 5.78125 -15.546875 C 6.71875 -16.273438 7.550781 -16.976562 8.28125 -17.65625 C 9.007812 -18.382812 9.425781 -18.90625 9.53125 -19.21875 C 9.632812 -19.53125 9.6875 -19.867188 9.6875 -20.234375 C 9.6875 -20.910156 9.503906 -21.613281 9.140625 -22.34375 C 8.566406 -23.488281 7.890625 -24.0625 7.109375 -24.0625 C 6.585938 -24.0625 5.78125 -23.59375 4.6875 -22.65625 C 3.59375 -21.664062 2.550781 -20.570312 1.5625 -19.375 C 0.9375 -18.539062 0.390625 -17.734375 -0.078125 -16.953125 C -0.597656 -16.171875 -0.910156 -15.519531 -1.015625 -15 Z M -1.015625 -15 "/></g></g><g style="fill:#005728;fill-opacity:1;"><g transform="translate(124.218581, 210.374986)"><path style="stroke:none" d="M 17.1875 -25.390625 C 16.507812 -24.503906 15.179688 -23.75 13.203125 -23.125 C 11.222656 -22.5 9.035156 -22.109375 6.640625 -21.953125 C 5.335938 -21.898438 4.398438 -21.742188 3.828125 -21.484375 C 3.253906 -21.222656 2.785156 -20.753906 2.421875 -20.078125 C 1.691406 -18.773438 1.378906 -17.679688 1.484375 -16.796875 C 1.585938 -15.910156 2.082031 -15.128906 2.96875 -14.453125 C 5.257812 -13.253906 8.28125 -12.835938 12.03125 -13.203125 C 15.78125 -13.566406 20.960938 -15.3125 27.578125 -18.4375 C 30.804688 -19.945312 33.617188 -21.144531 36.015625 -22.03125 C 38.410156 -22.96875 39.660156 -23.4375 39.765625 -23.4375 C 39.816406 -23.4375 39.867188 -23.332031 39.921875 -23.125 C 39.972656 -22.96875 40 -22.785156 40 -22.578125 L 40 -22.421875 C 39.945312 -21.585938 38.75 -20.3125 36.40625 -18.59375 C 34.0625 -16.820312 31.328125 -15.128906 28.203125 -13.515625 C 26.484375 -12.628906 24.738281 -11.796875 22.96875 -11.015625 C 21.195312 -10.285156 19.503906 -9.6875 17.890625 -9.21875 C 14.921875 -8.382812 12.160156 -7.96875 9.609375 -7.96875 L 8.671875 -7.96875 C 5.859375 -8.125 3.695312 -8.59375 2.1875 -9.375 C 0.832031 -10.050781 -0.257812 -10.960938 -1.09375 -12.109375 C -1.976562 -13.253906 -2.5 -14.476562 -2.65625 -15.78125 L -2.65625 -16.328125 C -2.65625 -17.109375 -2.5 -17.941406 -2.1875 -18.828125 C -1.820312 -19.921875 -1.273438 -21.015625 -0.546875 -22.109375 C 0.804688 -24.191406 2.601562 -26.09375 4.84375 -27.8125 C 7.082031 -29.53125 9.375 -30.648438 11.71875 -31.171875 C 12.1875 -31.273438 12.65625 -31.351562 13.125 -31.40625 L 14.453125 -31.40625 C 16.222656 -31.25 17.421875 -30.597656 18.046875 -29.453125 C 18.671875 -28.253906 18.382812 -26.898438 17.1875 -25.390625 Z M 10.078125 -27.03125 C 9.085938 -26.507812 8.253906 -25.960938 7.578125 -25.390625 C 7.210938 -25.128906 7.03125 -24.921875 7.03125 -24.765625 C 7.03125 -24.660156 7.132812 -24.582031 7.34375 -24.53125 L 7.578125 -24.53125 C 7.890625 -24.53125 8.382812 -24.554688 9.0625 -24.609375 C 9.894531 -24.710938 11.015625 -25.101562 12.421875 -25.78125 C 12.890625 -26.039062 13.332031 -26.429688 13.75 -26.953125 C 13.90625 -27.210938 13.984375 -27.394531 13.984375 -27.5 C 13.984375 -27.65625 13.851562 -27.757812 13.59375 -27.8125 L 13.359375 -27.8125 C 13.097656 -27.8125 12.734375 -27.785156 12.265625 -27.734375 C 11.691406 -27.679688 10.960938 -27.445312 10.078125 -27.03125 Z M 10.078125 -27.03125 "/></g></g><g style="fill:#005728;fill-opacity:1;"><g transform="translate(162.652324, 210.374986)"><path style="stroke:none" d="M 15.9375 -25 C 16.039062 -24.6875 15.910156 -24.453125 15.546875 -24.296875 C 15.179688 -24.191406 14.582031 -24.164062 13.75 -24.21875 C 13.070312 -24.21875 12.03125 -24.320312 10.625 -24.53125 C 9.164062 -24.6875 8.175781 -24.738281 7.65625 -24.6875 C 6.5625 -24.582031 5.910156 -24.296875 5.703125 -23.828125 C 5.441406 -23.359375 5.519531 -22.863281 5.9375 -22.34375 C 6.09375 -22.082031 6.535156 -21.691406 7.265625 -21.171875 C 7.941406 -20.597656 8.722656 -19.972656 9.609375 -19.296875 C 10.910156 -18.304688 12.238281 -17.34375 13.59375 -16.40625 C 14.945312 -15.46875 15.753906 -14.894531 16.015625 -14.6875 C 16.691406 -15.207031 17.8125 -15.859375 19.375 -16.640625 C 20.988281 -17.472656 22.914062 -18.332031 25.15625 -19.21875 C 29.320312 -20.832031 34.191406 -22.160156 39.765625 -23.203125 C 45.390625 -24.296875 50.648438 -24.140625 55.546875 -22.734375 C 55.703125 -22.628906 55.78125 -22.523438 55.78125 -22.421875 C 55.832031 -22.109375 55.3125 -21.769531 54.21875 -21.40625 C 52.65625 -20.832031 50.335938 -20.234375 47.265625 -19.609375 C 45.335938 -19.191406 43.359375 -18.695312 41.328125 -18.125 C 39.296875 -17.601562 37.316406 -17.03125 35.390625 -16.40625 C 31.742188 -15.257812 28.488281 -14.113281 25.625 -12.96875 C 22.707031 -11.820312 20.832031 -10.910156 20 -10.234375 C 20.570312 -9.710938 21.015625 -8.929688 21.328125 -7.890625 C 21.640625 -6.847656 21.769531 -5.988281 21.71875 -5.3125 C 21.664062 -4.113281 21.507812 -3.175781 21.25 -2.5 C 20.988281 -1.820312 20.519531 -1.171875 19.84375 -0.546875 C 18.644531 0.492188 17.1875 1.015625 15.46875 1.015625 L 15.234375 1.015625 C 13.410156 0.960938 12.03125 0.363281 11.09375 -0.78125 C 10.207031 -1.769531 9.789062 -3.019531 9.84375 -4.53125 C 9.945312 -6.039062 10.46875 -7.601562 11.40625 -9.21875 C 11.769531 -9.789062 12.265625 -10.625 12.890625 -11.71875 C 12.578125 -11.976562 12.082031 -12.34375 11.40625 -12.8125 C 10.988281 -13.070312 10.335938 -13.515625 9.453125 -14.140625 C 8.515625 -14.710938 7.628906 -15.285156 6.796875 -15.859375 C 3.460938 -18.097656 1.351562 -20.363281 0.46875 -22.65625 C 0.15625 -23.4375 0 -24.164062 0 -24.84375 C 0 -26.039062 0.570312 -26.976562 1.71875 -27.65625 C 2.5 -28.125 3.410156 -28.4375 4.453125 -28.59375 C 5.234375 -28.75 6.039062 -28.828125 6.875 -28.828125 C 7.082031 -28.828125 7.289062 -28.800781 7.5 -28.75 C 9.476562 -28.695312 11.300781 -28.304688 12.96875 -27.578125 C 14.632812 -26.847656 15.625 -25.988281 15.9375 -25 Z M 15.625 -3.359375 C 16.25 -3.410156 16.820312 -3.878906 17.34375 -4.765625 C 17.5 -5.023438 17.578125 -5.285156 17.578125 -5.546875 C 17.578125 -6.222656 17.132812 -6.953125 16.25 -7.734375 C 15.207031 -6.328125 14.660156 -5.257812 14.609375 -4.53125 C 14.609375 -4.476562 14.632812 -4.425781 14.6875 -4.375 C 14.738281 -3.695312 15.023438 -3.359375 15.546875 -3.359375 Z M 15.625 -3.359375 "/></g></g><g style="fill:#005728;fill-opacity:1;"><g transform="translate(217.100128, 210.374986)"><path style="stroke:none" d="M 1.328125 -13.359375 C 0.234375 -14.296875 -0.441406 -15.078125 -0.703125 -15.703125 C -0.910156 -16.273438 -1.015625 -17.1875 -1.015625 -18.4375 L -1.015625 -18.90625 C -1.015625 -19.6875 -0.832031 -20.648438 -0.46875 -21.796875 C -0.15625 -22.992188 0.234375 -24.191406 0.703125 -25.390625 C 1.484375 -27.210938 2.289062 -28.851562 3.125 -30.3125 C 3.90625 -31.5625 4.503906 -32.210938 4.921875 -32.265625 L 5.078125 -32.265625 C 5.285156 -32.160156 5.46875 -32.054688 5.625 -31.953125 C 5.78125 -31.847656 5.859375 -31.742188 5.859375 -31.640625 C 5.859375 -31.585938 5.726562 -30.9375 5.46875 -29.6875 C 5.207031 -28.4375 4.894531 -26.953125 4.53125 -25.234375 C 3.75 -21.640625 3.566406 -19.375 3.984375 -18.4375 C 4.398438 -17.5 5.753906 -17.03125 8.046875 -17.03125 C 8.828125 -17.03125 10.882812 -17.289062 14.21875 -17.8125 C 17.5 -18.382812 21.066406 -19.035156 24.921875 -19.765625 C 32.992188 -21.378906 38.671875 -22.421875 41.953125 -22.890625 C 45.234375 -23.359375 46.875 -23.332031 46.875 -22.8125 C 46.875 -22.601562 46.5625 -22.316406 45.9375 -21.953125 C 45.363281 -21.585938 44.582031 -21.195312 43.59375 -20.78125 C 41.71875 -19.945312 39.269531 -19.035156 36.25 -18.046875 C 33.175781 -17.054688 30.023438 -16.117188 26.796875 -15.234375 C 23.460938 -14.296875 20.234375 -13.488281 17.109375 -12.8125 C 14.035156 -12.132812 11.5625 -11.742188 9.6875 -11.640625 C 7.96875 -11.535156 6.640625 -11.484375 5.703125 -11.484375 C 4.972656 -11.484375 4.453125 -11.507812 4.140625 -11.5625 C 3.460938 -11.71875 2.523438 -12.316406 1.328125 -13.359375 Z M 6.40625 -37.03125 C 6.195312 -37.394531 6.09375 -37.890625 6.09375 -38.515625 C 6.09375 -39.140625 6.195312 -39.921875 6.40625 -40.859375 C 6.71875 -42.785156 7.1875 -44.085938 7.8125 -44.765625 C 8.332031 -45.441406 8.929688 -45.78125 9.609375 -45.78125 C 10.023438 -45.78125 10.492188 -45.625 11.015625 -45.3125 C 11.953125 -44.738281 12.421875 -43.929688 12.421875 -42.890625 C 12.421875 -42.578125 12.367188 -42.265625 12.265625 -41.953125 C 12.054688 -41.015625 11.351562 -39.765625 10.15625 -38.203125 C 8.957031 -36.691406 8.125 -35.9375 7.65625 -35.9375 C 7.5 -35.9375 7.289062 -36.039062 7.03125 -36.25 C 6.769531 -36.457031 6.5625 -36.71875 6.40625 -37.03125 Z M 6.40625 -37.03125 "/></g></g><g style="fill:#005728;fill-opacity:1;"><g transform="translate(261.939496, 210.374986)"><path style="stroke:none" d="M 9.296875 -28.203125 C 11.171875 -26.847656 12.1875 -25.46875 12.34375 -24.0625 C 12.445312 -22.65625 12.445312 -21.484375 12.34375 -20.546875 C 13.332031 -20.335938 15.285156 -20.363281 18.203125 -20.625 C 21.066406 -20.832031 24.398438 -21.171875 28.203125 -21.640625 C 31.847656 -22.109375 35 -22.445312 37.65625 -22.65625 C 40.3125 -22.8125 41.691406 -22.8125 41.796875 -22.65625 L 41.796875 -22.578125 C 41.796875 -22.421875 41.640625 -22.238281 41.328125 -22.03125 C 40.960938 -21.769531 40.46875 -21.484375 39.84375 -21.171875 C 38.59375 -20.546875 36.925781 -19.867188 34.84375 -19.140625 C 32.8125 -18.460938 30.78125 -17.863281 28.75 -17.34375 C 27.863281 -17.132812 26.820312 -16.925781 25.625 -16.71875 C 24.425781 -16.507812 23.203125 -16.328125 21.953125 -16.171875 C 19.554688 -15.910156 17.238281 -15.726562 15 -15.625 C 12.8125 -15.570312 11.457031 -15.675781 10.9375 -15.9375 C 10.625 -15.570312 10.234375 -15.050781 9.765625 -14.375 C 9.296875 -13.644531 8.800781 -13.046875 8.28125 -12.578125 C 6.820312 -11.171875 5.335938 -10.285156 3.828125 -9.921875 C 3.359375 -9.765625 2.914062 -9.6875 2.5 -9.6875 C 1.507812 -9.6875 0.625 -10 -0.15625 -10.625 C -1.144531 -11.40625 -1.796875 -12.707031 -2.109375 -14.53125 C -2.210938 -15.15625 -2.265625 -15.804688 -2.265625 -16.484375 C -2.265625 -17.628906 -2.082031 -18.75 -1.71875 -19.84375 C -1.195312 -21.25 -0.414062 -22.863281 0.625 -24.6875 C 1.664062 -26.5625 2.890625 -27.890625 4.296875 -28.671875 C 5.023438 -29.085938 5.78125 -29.296875 6.5625 -29.296875 L 6.71875 -29.296875 C 7.550781 -29.296875 8.410156 -28.929688 9.296875 -28.203125 Z M 5.46875 -25.859375 C 5.570312 -25.078125 6.015625 -24.269531 6.796875 -23.4375 C 7.578125 -22.601562 8.304688 -22.054688 8.984375 -21.796875 C 9.296875 -22.265625 9.453125 -22.734375 9.453125 -23.203125 C 9.453125 -23.722656 9.242188 -24.21875 8.828125 -24.6875 C 8.203125 -25.519531 7.394531 -25.9375 6.40625 -25.9375 L 5.9375 -25.9375 C 5.882812 -25.9375 5.804688 -25.910156 5.703125 -25.859375 Z M 1.875 -14.21875 C 2.132812 -14.007812 2.445312 -13.90625 2.8125 -13.90625 C 3.070312 -13.90625 3.359375 -13.957031 3.671875 -14.0625 C 4.398438 -14.320312 5.050781 -14.789062 5.625 -15.46875 C 5.9375 -15.832031 6.273438 -16.25 6.640625 -16.71875 C 6.953125 -17.1875 7.109375 -17.523438 7.109375 -17.734375 C 6.640625 -17.992188 5.960938 -18.515625 5.078125 -19.296875 C 4.191406 -20.078125 3.460938 -21.039062 2.890625 -22.1875 C 2.109375 -21.351562 1.585938 -19.945312 1.328125 -17.96875 C 1.273438 -17.394531 1.25 -16.898438 1.25 -16.484375 C 1.25 -15.335938 1.457031 -14.582031 1.875 -14.21875 Z M 1.875 -14.21875 "/></g></g></g></svg>